<?xml version="1.0" standalone="no"?>
<!DOCTYPE svg PUBLIC "-//W3C//DTD SVG 1.1//EN" "http://www.w3.org/Graphics/SVG/1.1/DTD/svg11.dtd" >
<svg>
<metadata>
Created by FontForge 20090914 at Tue Aug 27 07:02:01 2013
 By www-data
Copyright (c) 2009 Confidential
</metadata>
<defs>
<font id="ZodiacCipher" horiz-adv-x="1500" >
  <font-face 
    font-family="Zodiac Cipher"
    font-weight="400"
    font-stretch="normal"
    units-per-em="2048"
    panose-1="2 0 5 6 0 0 0 2 0 4"
    ascent="1638"
    descent="-410"
    x-height="915"
    cap-height="915"
    bbox="-254 -232 1491 1280"
    underline-thickness="150"
    underline-position="-142"
    unicode-range="U+0020-U+007E"
  />
<missing-glyph 
d="M256 0v1280h1024v-1280h-1024zM288 32h960v1216h-960v-1216z" />
    <glyph glyph-name=".notdef" 
d="M256 0v1280h1024v-1280h-1024zM288 32h960v1216h-960v-1216z" />
    <glyph glyph-name="space" unicode=" " 
 />
    <glyph glyph-name="space" unicode="&#xa0;" 
 />
    <glyph glyph-name="exclam" unicode="!" 
d="M658 913l22 -0.000976562c51.333 0 122 -254.667 212 -764c0 -85.333 -78 -128 -234 -128c-66.667 -14 -165.667 -21 -297 -21c-240.667 0 -361 42.333 -361 127v22c-0 24.667 219.333 279.334 658 764.001z" />
    <glyph glyph-name="quotedbl" unicode="&#x22;" 
 />
    <glyph glyph-name="numbersign" unicode="#" 
d="M686 915l45.998 0.000976562c78.667 0 170.334 -274.333 275.001 -823c-15.333 -50.667 -46 -81.334 -92 -92.001c-264 15.333 -477.333 23 -640 23c-38.667 0 -99.667 -7.66699 -183 -23c-61.333 22.667 -92 45.667 -92 69v45
c436.667 532.667 665.334 799.667 686.001 801zM296.998 183.001v-23h504c30 0 45 15.333 45 46c0 194 -45.667 369.333 -137 526c-254.667 -224 -392 -407 -412 -549zM571.998 435.001l46 -0.000976562c30 -5.33301 45 -20.666 45 -45.999v-46h-91v92z" />
    <glyph glyph-name="dollar" unicode="$" 
d="M252 915c366 -25.333 549 -94 549 -206l23 -46c-15.333 -104 -23 -187.667 -23 -251v-252c0 -91.333 -46 -137 -138 -137h-68c-106.667 0 -274.334 -7.66699 -503.001 -23c-61.333 84 -92 168 -92 252c46 426.667 99.333 640 160 640c34.667 0 65.334 7.66699 92.001 23z
" />
    <glyph glyph-name="percent" unicode="%" 
d="M183 915c209.333 -17.333 366.333 -26 471 -26c91.333 17.333 143.333 26 156 26c122 0 183 -87 183 -261c-32.667 -436 -111 -654 -235 -654c-505.333 -0 -758 52.333 -758 157v183c0 82.667 8.66699 169.667 26 261c-17.333 69.333 -26 130.333 -26 183
c28 87.333 89 131 183 131zM235 627v-329l501 393l-448 -11c-35.333 -5.33301 -53 -23 -53 -53z" />
    <glyph glyph-name="ampersand" unicode="&#x26;" 
d="M183 915c427.333 -27.333 641.001 -103.667 641.001 -229c-28.667 -442 -82.334 -663 -161.001 -663l-45 -23c-128.667 30.667 -296.667 46 -504 46h-45c-22 0 -45 22.667 -69 68c30.667 534 91.667 801 183 801zM229.001 754.999
c-30.667 -69.333 -53.667 -244.667 -69 -526c50 -30.667 95.667 -46 137 -46h321c45.333 168.667 68 344 68 526l-45 23h-69c-76.667 0 -191 7.66699 -343 23z" />
    <glyph glyph-name="quotesingle" unicode="'" 
 />
    <glyph glyph-name="parenleft" unicode="(" 
 />
    <glyph glyph-name="parenright" unicode=")" 
 />
    <glyph glyph-name="asterisk" unicode="*" 
d="M94 915h633c172 0 258 -62.667 258 -188c-31.333 -156 -47 -296.667 -47 -422v-141c0 -109.333 -101.667 -164 -305 -164c-64.667 0 -150.667 7.66699 -258 23l-117 -23c-172 0 -258 54.667 -258 164v141c-0 406.667 31.333 610 94 610zM211 282l46.999 -24h258l164 -23
c36.667 25.333 60.334 166 71.001 422l-47 23h-352c-94 -25.333 -141 -158 -141 -398zM632.999 516l0.000976562 -23c0 -94 -46.667 -141 -140 -141h-24c-22 0 -45.333 23.333 -70 70v94l68 88c81.333 -2 136.666 -31.333 165.999 -88z" />
    <glyph glyph-name="plus" unicode="+" 
d="M498 913c79.333 0 134.667 -110.667 166 -332h166c41.333 0 78.333 9.33301 111 28c92 -24 138 -51.667 138 -83v-83c-18.667 -55.333 -74 -83 -166 -83h-194c-55.333 0 -92 -110.667 -110 -332l-56 -28h-55c-42 0 -79 110.667 -111 332c-258 0 -387 37 -387 111v83
l138 27h249c37.333 0 56 27.667 56 83c0 14 -9.33301 69.333 -28 166z" />
    <glyph glyph-name="comma" unicode="," 
 />
    <glyph glyph-name="hyphen" unicode="-" 
d="M359 545l35 -17h142c66.667 0 108 -35.333 124 -106c-0.666992 -17.333 -24.334 -47 -71.001 -89l-88 18h-372c-63.333 0 -104.666 23.667 -123.999 71v17c0 40 118 75.333 354 106z" />
    <glyph glyph-name="hyphen" unicode="&#xad;" 
d="M359 545l35 -17h142c66.667 0 108 -35.333 124 -106c-0.666992 -17.333 -24.334 -47 -71.001 -89l-88 18h-372c-63.333 0 -104.666 23.667 -123.999 71v17c0 40 118 75.333 354 106z" />
    <glyph glyph-name="period" unicode="." 
d="M105 593c24.667 -1.33301 68 -36 130 -104c-26 -70 -52 -105 -78 -105h-79c-17.333 0 -43.333 35 -78 105c12.667 52 47.667 86.667 105 104z" />
    <glyph glyph-name="slash" unicode="/" 
d="M651 915c26.667 -4 39.999 -17.667 39.999 -41c0 -148.667 -203.333 -440 -610 -874h-20c-19.333 -0 -39.666 20.333 -60.999 61v41c298 338.667 515 609.667 651 813z" />
    <glyph glyph-name="zero" unicode="0" 
d="M587 708c188.667 -52 283.001 -139.668 283.001 -263.001c0 -253.333 -175.333 -401.666 -526 -444.999h-20c-216 0 -324 108 -324 324c46 136 120.333 237 223 303c61.333 40.667 182.666 67.667 363.999 81z" />
    <glyph glyph-name="one" unicode="1" 
d="M410 705c209.333 0 353.333 -106 432 -318c0 -173.333 -151.667 -302.333 -455 -387c-258 40.667 -387 162 -387 364c74 227.333 210.667 341 410 341zM228 432h364c30 0 45 15.333 45 46v45c-98.667 30.667 -167 46 -205 46h-45c-106 0 -159 -45.667 -159 -137z" />
    <glyph glyph-name="two" unicode="2" 
d="M393 700c227.333 -65.333 341.001 -150.667 341.001 -256c0 -183.333 -131 -331.333 -393 -444c-152.667 0 -266.334 91 -341.001 273c35.333 284.667 166.333 427 393 427zM410.001 221.999c22 -11.333 38.999 -17 50.999 -17c53.333 0 99 74 137 222v17
c0 68 -34.333 102 -103 102c-45.333 0 -73.666 -108 -84.999 -324z" />
    <glyph glyph-name="three" unicode="3" 
d="M368 700c280 0 419.999 -93.333 419.999 -280c-82.667 -280 -257.667 -420 -525 -420c-120 -0 -207.667 93.333 -263 280c98.667 280 221.334 420 368.001 420zM122.999 280v-17c0 -64 29 -110.667 87 -140h70c175.333 31.333 263 66.333 263 105v35
c-7.33301 34.667 -54 52 -140 52h-245c-23.333 -3.33301 -35 -15 -35 -35z" />
    <glyph glyph-name="four" unicode="4" 
d="M298 700c186 0 316 -86.333 390 -259l-1 -236c-82 -136.667 -211.667 -205 -389 -205c-168.667 0 -268 111 -298 333c62 244.667 161.333 367 298 367zM123 298c0 -105.333 46.667 -158 140 -158c46.667 0 70 105 70 315l-18 88h-35
c-104.667 -60 -157 -141.667 -157 -245z" />
    <glyph glyph-name="five" unicode="5" 
d="M459 700h22c175.333 -40 263 -120.333 263 -241c-48.667 -306 -202 -459 -460 -459c-100 0 -194.667 73 -284 219c48 320.667 201 481 459 481zM153 372v-153c0 -22 29.333 -44 88 -66c248 0 372 80.333 372 241v65c-37.333 73.333 -103 110 -197 110
c-92 0 -179.667 -65.667 -263 -197zM372 438c20.667 0 42.666 -22 65.999 -66v-66h-66c-29.333 0 -44 14.667 -44 44v44c4.66699 29.333 19.334 44 44.001 44z" />
    <glyph glyph-name="six" unicode="6" 
d="M441 706c102.667 0 201.001 -92.667 295.001 -278c150 -23.333 225 -52.333 225 -87v-34c0 -9.33301 -17.333 -27 -52 -53c-24.667 12 -76.667 23.667 -156 35c-14 0 -72 -69.333 -174 -208c-86 -58 -161 -87 -225 -87h-35c-116.667 0 -209.334 104.333 -278.001 313
h-191c-42 0 -76.667 17.333 -104 52c0 50 98.333 78.667 295 86c86.667 174 220 261 400 261zM232.001 480v-35c120 -22.667 224.333 -34 313 -34l17 34v70c-11.333 34.667 -46 52 -104 52h-52c-90 0 -148 -29 -174 -87zM197.001 289v-35c0 -62 23.333 -102.333 70 -121h104
c92.667 0 139 46.333 139 139l-87 17h-226z" />
    <glyph glyph-name="seven" unicode="7" 
d="M369 876l135 -201c145.333 -98 218 -193.333 218 -286c0 -145.333 -100.667 -274 -302 -386l-34 -235h-67c-30 0 -58 78.333 -84 235c-156.667 87.333 -235 193.666 -235 318.999c0 126.667 100.667 255.334 302 386.001c16.667 112 39 168 67 168zM470 456v-218h17
c33.333 0 61.333 50.333 84 151v51c0 16 -15.333 32.667 -46 50l-49 34zM134 272c15.333 -46.667 43.333 -80.333 84 -101h34c36.667 0 59 84 67 252l-12 78l-72 -28c-67.333 -40 -101 -107 -101 -201z" />
    <glyph glyph-name="eight" unicode="8" 
d="M516 700c147.333 0 233.333 -147.334 258 -442.001c-74 -172 -197 -258 -369 -258h-37c-161.333 0 -284 110.667 -368 332c0 224.667 172 347.334 516 368.001zM258 441.999l74 -37h110c49.333 0 74 24.667 74 74c0 48.667 -24.667 73 -74 73h-74
c-35.333 0 -72 -36.667 -110 -110zM626 441.999c0 -26 -12.333 -62.667 -37 -110l74 -37v147h-37zM148 367.999l0.000976562 -110c7.33301 -49.333 31.666 -74 72.999 -74h37v111c0 48.667 -24.667 73 -74 73h-36zM368.001 220.999c8 -48.667 32.667 -73 74 -73h74v73
c0 49.333 -24.667 74 -74 74c-49.333 -8 -74 -32.667 -74 -74z" />
    <glyph glyph-name="nine" unicode="9" 
d="M489 921c17.333 0 58 -78.666 122 -235.999c143.333 -40 229.666 -128.667 258.999 -266l166 -45c14 0 21 -6.66699 21 -20v-21c0 -19.333 -74.333 -53 -223 -101c-36.667 -80.667 -109 -148.334 -217 -203.001l-47 -101l-20 -81h-40l-71 149l-233 94
c0 93.333 -135.333 147.333 -406 162l-20 41v40l101 21h223c18.667 0 72.667 81 162 243c134.667 72.667 202.334 120 203.001 142v20l-20 142zM307 455.001l-0.000976562 -19.999c4 -27.333 17.333 -41 40 -41h81c27.333 0 41 13.667 41 41v81c0 26.667 -13.667 40 -41 40
c-55.333 -18.667 -95.666 -52.334 -120.999 -101.001zM610.999 475.002c4 -26.667 17.333 -39.999 40 -39.999h61v40c0 27.333 -13.333 41 -40 41h-21c-26.667 -4.66699 -40 -18.334 -40 -41.001zM610.999 178.003l95 21.001l6 74h-61
c-26.667 -4.66699 -40 -36.334 -40 -95.001zM286.999 252.004v-61c0 -19.333 20 -39.333 60 -60h81c27.333 0 41 13.333 41 40v41c0 26.667 -13.667 40 -41 40h-141z" />
    <glyph glyph-name="colon" unicode=":" 
 />
    <glyph glyph-name="semicolon" unicode=";" 
 />
    <glyph glyph-name="semicolon" unicode="&#x37e;" 
 />
    <glyph glyph-name="less" unicode="&#x3c;" 
d="M680 915c62.667 -23.333 93.999 -46.668 93.999 -70.001v-24c0 -20 -156.333 -129.333 -469 -328l-47 -71c294 -204 442.667 -313.333 446 -328v-47c0 -31.333 -15.667 -47 -47 -47c-84 0 -303 148.667 -657 446v23c28.667 56.667 255.334 205.334 680.001 446.001z" />
    <glyph glyph-name="equal" unicode="=" 
 />
    <glyph glyph-name="greater" unicode="&#x3e;" 
d="M143 915h57c522 -324 789 -505 801 -543c0 -66 -200.333 -142.333 -601 -229c0 -19.333 -95.333 -67 -286 -143c-56.667 14 -94.667 52 -114 114c0 48.667 181 144 543 286v29c0 48 -133.333 162.333 -400 343l-57 86c6 38 25 57 57 57z" />
    <glyph glyph-name="question" unicode="?" 
 />
    <glyph glyph-name="at" unicode="@" 
d="M742 915c132 0 198 -255.667 198 -767c0 -98.667 -57.667 -148 -173 -148h-25c-464 -0 -711.333 49.333 -742 148c458 511.333 705.333 767 742 767zM346 272l0.000976562 -74c107.333 -33.333 181.666 -50 222.999 -50h99c54 0 87 107.333 99 322
c-11.333 132 -28 198 -50 198c-41.333 0 -165 -132 -371 -396z" />
    <glyph glyph-name="A" unicode="A" 
d="M657 915c97.333 0 191 -250.333 281 -751v-117c0 -31.333 -15.667 -47 -47 -47h-23c-32.667 -0 -72 70.333 -118 211c-15.333 0 -23 8 -23 24c-86 -16 -148.667 -24 -188 -24c-37.333 0 -154.333 8 -351 24c0 -22 -47 -69 -141 -141h-47v47c0 46 140.667 241.333 422 586
c68.667 125.333 147 188 235 188zM610 727l-211.001 -258v-47c4.66699 -31.333 20.334 -47 47.001 -47h140c81.333 0 128.333 23.667 141 71c-36 187.333 -75 281 -117 281z" />
    <glyph glyph-name="B" unicode="B" 
d="M170 915h106.999c194.667 0 322.334 -92.333 383.001 -277c-14.667 -96.667 -22 -174.667 -22 -234l43 -64v-42c0 -198.667 -177.333 -298 -532 -298c-52 4.66699 -101.667 68.667 -149 192c28.667 38 50 201 64 489l-21 149c14 56.667 56.333 85 127 85zM191.999 681
c14 -99.333 35 -149 63 -149h149c85.333 0 128 42.667 128 128c-40 84.667 -125 127 -255 127c-56.667 -14 -85 -49.333 -85 -106zM191.999 362l-22 -107v-42c4.66699 -28.667 19 -43 43 -43h85c106.667 0 184.667 35.667 234 107v42c0 28.667 -14.333 43 -43 43h-297z" />
    <glyph glyph-name="C" unicode="C" 
d="M538 915h135.003c107.333 -62.667 161 -107.667 161 -135v-80h-188c-305.333 -40 -458 -174.667 -458 -404v-27c6 -36 24 -54 54 -54h216c40 0 75.667 9 107 27c90 -22.667 135 -49.667 135 -81v-107c-124.667 -36 -232.334 -54 -323.001 -54h-54
c-182.667 0 -290.334 116.667 -323.001 350c77.333 376.667 256.666 565 537.999 565z" />
    <glyph glyph-name="D" unicode="D" 
d="M316 915c399.333 -40 599 -197.667 599 -473c-94.667 -294.667 -336.667 -442 -726 -442c-104.667 29.333 -157 103 -157 221v284l-32 315c122.667 63.333 228 95 316 95zM221 663c15.333 -294.667 47 -441.999 95 -441.999c252 36 378 88.667 378 158v157
c0 33.333 -42 75.666 -126 126.999h-347z" />
    <glyph glyph-name="E" unicode="E" 
d="M165 909l331.001 0.000976562c135.333 0 208.666 -27.667 219.999 -83v-27l-82 -83l-56 28h-303c-36.667 -6 -55 -24.333 -55 -55v-55c0 -28.667 92 -65.667 276 -111l27 -55v-27c0 -36.667 -101 -64.334 -303 -83.001v-110c330.667 -25.333 496 -80.333 496 -165v-55
c-36.667 0 -55 -9.33301 -55 -28l-330 28h-193c-92 50.667 -138 133 -138 247c36.667 422.667 91.667 634 165 634z" />
    <glyph glyph-name="F" unicode="F" 
d="M632 893c32.667 0 61.668 7.33301 87.001 22c27.333 0 71 -36.333 131 -109c0 -78 -130.667 -121.667 -392 -131c-26 14.667 -55.333 22 -88 22h-65c-29.333 -4.66699 -44 -19 -44 -43v-66h218c174.667 0 262 -29 262 -87v-65c0 -29.333 -14.667 -44 -44 -44
c-202 14.667 -332.667 22 -392 22c-70 0 -120.667 -130.667 -152 -392c-29.333 0 -44 -7.33301 -44 -22c-72.667 29.333 -109 73 -109 131c53.333 133.333 89.666 387.333 108.999 762h523z" />
    <glyph glyph-name="G" unicode="G" 
d="M543 915c87.333 -36.667 135 -74.667 143 -114c0 -24 -104.667 -62.333 -314 -115c-105.333 -85.333 -172 -161.333 -200 -228v-172c18.667 -57.333 75.667 -86 171 -86c140.667 0 217 28.667 229 86v57h-29c-42.667 0 -80.667 -9.33301 -114 -28
c-76 28 -114 56.333 -114 85v29c0 27.333 28.333 56 85 86h29c192 0 316 -86 372 -258c-90 -171.333 -214 -257 -372 -257c-286 24 -429 167 -429 429c124.667 324 305.667 486 543 486z" />
    <glyph glyph-name="H" unicode="H" 
d="M78 909l25.999 0.000976562c52 0 86.667 -104 104 -312l52 -26h415c52 0 95.333 86.667 130 260h78c0 -18.667 8.66699 -44.667 26 -78c-34.667 -128.667 -52 -215.334 -52 -260.001h26l-26 -51v-286l-26 -130h-52c-52 17.333 -78 69.333 -78 156v182
c0 24.667 -26 50.667 -78 78h-389c-33.333 0 -76.666 -147.333 -129.999 -442h-26c-39.333 -0 -65.333 43.333 -78 130c17.333 355.333 43.333 615 78 779z" />
    <glyph glyph-name="I" unicode="I" 
d="M183 915c214.667 -15.333 397.665 -23 548.998 -23h137c22 0 45 -22.667 69 -68v-46c-15.333 -46 -61 -69 -137 -69h-160c-22 0 -41.333 -28.333 -58 -85c-38 -182 -57 -306 -57 -372v-69h115l61 6c50.667 -8 76 -25.333 76 -52v-23c0 -32.667 -53.333 -70.667 -160 -114
c-145.333 46 -221.666 69 -228.999 69c-19.333 0 -95.666 -7.66699 -228.999 -23c-106.667 36 -160 66.333 -160 91v92c91.333 -15.333 160 -23 206 -23c122 0 183 160 183 480c-56.667 46 -155.667 84.333 -297 115v45c0 23.333 30.333 46.333 91 69zM707.998 545
c50.667 -1.33301 81.668 -22.999 93.001 -64.999c0 -34.667 -27 -57.334 -81 -68.001l-58 34c9.33301 35.333 24.666 68.333 45.999 99z" />
    <glyph glyph-name="J" unicode="J" 
d="M245 914c401.333 -26 602 -70.667 602 -134v-22l-89 -89l-112 22h-22c-29.333 -4.66699 -44 -19.667 -44 -45v-379c0 -178 -67 -267 -201 -267h-112c-128.667 0 -217.667 52 -267 156l67 89c89.333 -59.333 156 -89 200 -89h67c23.333 0 53.333 29.667 90 89v379
c0 104 -96.667 156 -290 156c0 16 -7.66699 38.333 -23 67z" />
    <glyph glyph-name="K" unicode="K" 
d="M650 915c64 -24 96.001 -48 96.001 -72v-48l-240 -217v-24c192.667 -285.333 289 -438 289 -458c-24.667 -64 -49 -96 -73 -96h-24c-30.667 -0 -119 128.333 -265 385l-72 48h-72c-23.333 0 -47.333 -24 -72 -72v-265c0 -32 -16 -48 -48 -48h-73c-16 0 -40 32 -72 96
l24 169v145c0 36 -8 68 -24 96c0 16 8 24 24 24c-32 152.667 -48 249 -48 289l48 24h24c39.333 0 87.666 -88.333 144.999 -265z" />
    <glyph glyph-name="L" unicode="L" 
d="M112 915h43.999c22.667 0 45 -29.667 67 -89c-14.667 -194 -22 -350.333 -22 -469v-112c4.66699 -29.333 19.334 -44 44.001 -44h335c193.333 0 290 -37.333 290 -112l-67 -89l-223 22l-468 -22c-18 -0 -55.333 22.333 -112 67c30 269.333 45 537 45 803z" />
    <glyph glyph-name="M" unicode="M" 
d="M222 914c101.333 0 200.334 -90.667 297.001 -272c92.667 34 207.667 116.333 345 247h75c22 0 63 -41 123 -123v-50c0 -477.333 -41 -716 -123 -716h-25l-99 74c32.667 176 49 332.333 49 469h-49c-182 -115.333 -297.333 -173 -346 -173
c-18.667 0 -76.334 74.333 -173.001 223c-49.333 -108.667 -74 -183 -74 -223v-247c0 -23.333 -24.667 -48 -74 -74h-49c-37.333 0 -70.333 57.667 -99 173c68.667 376 142.667 606.667 222 692z" />
    <glyph glyph-name="N" unicode="N" 
d="M719 915c43.333 -9.33301 65 -67.333 65 -174v-22c0 -421.333 -36.333 -632 -109 -632c-16.667 0 -154.667 138 -414 414l-43 22h-22c-40.667 0 -69.667 -167 -87 -501l-44 -22h-43c0 15.333 -7.33301 37 -22 65c14.667 320 22 559.667 22 719l43 22h22
c312 -304.667 479 -457 501 -457h22c29.333 0 44 14.333 44 43c14 267.333 21 434.333 21 501z" />
    <glyph glyph-name="O" unicode="O" 
d="M493 909h104.001c242.667 0 364 -121.333 364 -364c0 -363.333 -207.667 -545 -623 -545c-225.333 82 -338 237.667 -338 467c103.333 294.667 267.666 442 492.999 442zM208.001 442v-103.999c0 -27.333 34.667 -62 104 -104h259
c138.667 63.333 208 175.666 208 336.999c-26.667 86.667 -130.667 130 -312 130c-172.667 -40 -259 -126.333 -259 -259z" />
    <glyph glyph-name="P" unicode="P" 
d="M305 915c406.667 -26 609.999 -135.999 609.999 -329.999c0 -175.333 -178 -277 -534 -305c-118.667 0 -178 -68 -178 -204c0 -24 -25.333 -49.333 -76 -76h-25c-35.333 7.33301 -69.333 49.666 -102 126.999c62.667 525.333 130.334 788 203.001 788h102z
M329.999 712.001l-25.001 -51v-127l127 -26h51c152.667 0 229 42.333 229 127c-91.333 51.333 -218.666 77 -381.999 77z" />
    <glyph glyph-name="Q" unicode="Q" 
d="M508 890c190.667 0 332.001 -70.667 424.001 -212v-212l-42 -254l66 -75l-46 -86l-121 31c-57.333 -54.667 -207.333 -82 -450 -82c-113.333 0 -226.333 84.667 -339 254v127c89.333 339.333 258.666 509 507.999 509zM508.001 669l-157 -80l-97 -165v-85
c8.66699 -56.667 37 -85 85 -85l260 -6l-93 109l67 89l122 -48l-11 139c-4 23.333 -62.667 67.333 -176 132z" />
    <glyph glyph-name="R" unicode="R" 
d="M275 909c330.667 -68.667 496 -187.999 496 -357.999c-8.66699 -58.667 -73 -141.334 -193 -248.001v-28l111 -165v-110h-83l-303 331h-28l-137 -276h-110l-28 138v27c50 459.333 123.333 689 220 689h55zM275 661.001v-55c0 -26.667 27.667 -54.334 83 -83.001h138
c26 0 53.333 27.667 82 83v28c-18 54.667 -73 82 -165 82h-82c-37.333 -5.33301 -56 -23.666 -56 -54.999z" />
    <glyph glyph-name="S" unicode="S" 
d="M352 915c156.667 -44 235.001 -91.001 235.001 -141.001v-70l-235 23l-24 -47v-70c171.333 -107.333 281 -209 329 -305c0 -172 -156.333 -273.667 -469 -305c-125.333 28 -188 67 -188 117c23.333 62.667 46.666 94 69.999 94h305c47.333 0 71 31.333 71 94
c0 28.667 -78.333 91.334 -235 188.001c-43.333 50 -74.666 112.333 -93.999 187c57.333 156.667 135.666 235 234.999 235z" />
    <glyph glyph-name="T" unicode="T" 
d="M602 916h216.999c112.667 -38.667 169 -71 169 -97v-72l-120 -24h-217c-23.333 0 -47.666 -24 -72.999 -72c0 -278.667 -16 -495.667 -48 -651h-72c-11.333 0 -35.333 24 -72 72l48 603c-52.667 32 -93 48 -121 48l-217 -24c-64 24 -96 48 -96 72v72
c191.333 48.667 392 73 602 73z" />
    <glyph glyph-name="U" unicode="U" 
d="M915 915c28 0 67.333 -49.332 118 -147.999l-29 -206v-118c0 -70.667 9.66699 -159.334 29 -266.001c-12 -98 -71 -147 -177 -147c0 28 -29.667 57.333 -89 88h-59c-62 -58.667 -189.667 -98 -383 -118c-141.333 -0 -249.666 108.333 -324.999 325
c27.333 373.333 66.666 560 117.999 560h59c39.333 -6 59 -25.667 59 -59v-147l-29 -354l118 -89h147c134 0 271.667 226.333 413 679h30z" />
    <glyph glyph-name="V" unicode="V" 
d="M29 913l28 -0.000976562c32 0 165 -209.333 399 -628c40 2 211.333 192.333 514 571l57 28h57c38 -6 57 -25 57 -57v-85c-372 -456 -600.333 -703.333 -685 -742h-57c-56 30 -189 305.667 -399 827c19.333 36.667 29 65.334 29 86.001z" />
    <glyph glyph-name="W" unicode="W" 
d="M1411 825l80.001 -106c0 -95.333 -195.333 -317.333 -586 -666h-53l-213 213c-148 -177.333 -245.667 -266 -293 -266c-76 0 -191.333 213 -346 639v80c35.333 0 53 9 53 27c34 0 131.667 -142 293 -426h27l266 239h53c113.333 -124 175.666 -186 186.999 -186h26
c264 301.333 432.667 452 506 452z" />
    <glyph glyph-name="X" unicode="X" 
d="M92 915h45l252 -252c64 0 163 84 297 252h23c22.667 0 45.667 -30.333 69 -91c-168 -258 -252 -403 -252 -435c0 -60 45.667 -136.333 137 -229v-91c0 -30.667 -15 -46 -45 -46c-62.667 0 -146.667 53.333 -252 160h-46l-206 -183h-45c-26.667 0 -49.667 38 -69 114
c0 18 84 125 252 321v23c0 46.667 -68.667 176 -206 388v23c4.66699 30.667 20 46 46 46z" />
    <glyph glyph-name="Y" unicode="Y" 
d="M680 915h71.001c0 -16.667 7.66699 -40 23 -70c-18.667 -120 -198.334 -362.667 -539.001 -728c0 -78 -55 -117 -165 -117c-22 -0 -45.333 23.333 -70 70v94c156.667 153.333 235 263 235 329c-110 176 -165 293.333 -165 352v23h47
c156.667 -156.667 250.667 -235 282 -235c16 0 109.667 94 281 282z" />
    <glyph glyph-name="Z" unicode="Z" 
d="M111 915c517.333 -14 776 -60.333 776 -139v-28c0 -78 -83.333 -207.333 -250 -388v-83h28c332.667 -11.333 499 -57.333 499 -138v-56c-36.667 0 -55 -9.33301 -55 -28l-278 28l-665 -83l-27 55v56c314 290 471 484 471 582c-406.667 18.667 -610 55.667 -610 111v83
c9.33301 0 46.333 9.33301 111 28z" />
    <glyph glyph-name="bracketleft" unicode="[" 
d="M183 915l458.002 -0.000976562c60.667 -9.33301 91 -39.666 91 -90.999l-40 -91l-154 -31v-433c160 -4.66699 240 -48.667 240 -132c-30.667 -91.333 -122.334 -137 -275.001 -137h-366c-66.667 41.333 -103 77.333 -109 108c40 84.667 122.333 132.667 247 144v434
c-122 0 -183 30.667 -183 92v46c9.33301 60.667 39.666 91 90.999 91z" />
    <glyph glyph-name="backslash" unicode="\" 
d="M86 904h171.999c402 -494.667 603 -753 603 -775v-43c0 -57.333 -28.667 -86 -86 -86h-129l-646 775v43c8.66699 57.333 37.334 86 86.001 86z" />
    <glyph glyph-name="bracketright" unicode="]" 
d="M86 904l300.998 -0.000976562c344.667 0 517 -57.333 517 -172c-17.333 -86 -117.666 -129 -300.999 -129v-302l120 -17l85 35l84 -19l12 -171c0 -47.333 -100.333 -90.333 -301 -129c-115.333 22.667 -173 51.334 -173 86.001l-125 -76
c-141.333 6.66699 -235 62.667 -281 168l45 172l232 -28v324c-200.667 0 -301 57.333 -301 172c8.66699 57.333 37.334 86 86.001 86z" />
    <glyph glyph-name="asciicircum" unicode="^" 
d="M839 915c94.667 0 154 -42.333 178 -127c-58 -508.667 -142.667 -763 -254 -763h-509l-178 -25l-76 153c-0 508 42.333 762 127 762h712zM356 737c0 -46.667 127 -182.333 381 -407c55.333 0 89.333 110.333 102 331v51c0 34 -17 51 -51 51h-381z" />
    <glyph glyph-name="underscore" unicode="_" 
d="M416 915l124.999 0.000976562c38.667 0 108 -180.333 208 -541l83 -41l125 83h83c55.333 -8.66699 83 -36.334 83 -83.001v-83c-68.667 -120.667 -165.667 -204 -291 -250c-91.333 55.333 -174.666 83 -249.999 83l-291 -83c-148.667 -0 -245.667 55.333 -291 166v125
l291 -41c83.333 27.333 125 110.333 125 249v250c0 27.333 -14 41 -42 41c28 54 42 95.667 42 125z" />
    <glyph glyph-name="grave" unicode="`" 
d="M600 915c202 0 335.667 -142.999 401 -428.999c-19.333 -56 -29 -151.333 -29 -286c95.333 -24 143 -52.667 143 -86v-85l-143 -29h-143c-98.667 0 -155.667 28.667 -171 86v86c95.333 116.667 143 231 143 343v85c0 26 -47.667 73.667 -143 143h-86
c-133.333 -72.667 -200 -177.334 -200 -314.001c0 -27.333 47.667 -151.333 143 -372l-86 -57h-257c-99.333 0 -156.666 28.667 -171.999 86v28c0 45.333 76.333 74 229 86v200c0 19.333 -9.66699 29 -29 29c57.333 324 190.666 486 399.999 486z" />
    <glyph glyph-name="a" unicode="a" 
 />
    <glyph glyph-name="b" unicode="b" 
d="M298 915l106.001 -0.000976562c128 0 192 -113.333 192 -340c-14 -28 -21 -49.333 -21 -64c0 -43.333 7 -93 21 -149c-14 -93.333 -21 -185.666 -21 -276.999v-21c0 -32.667 -35.667 -54 -107 -64c-312 30 -468 129.333 -468 298c28.667 105.333 43 176.333 43 213
c0 99.333 -14.333 149 -43 149c51.333 170 150.666 255 297.999 255zM149.001 637.999v-21c0 -20 21.333 -41.333 64 -64h106l107 22v148c0 20.667 -21.333 42 -64 64h-107c-70.667 -28 -106 -77.667 -106 -149zM149.001 318.999v-85.001c14 -56.667 92 -85 234 -85
c28.667 46.667 43 89.334 43 128.001v85c0 28 -14.333 42 -43 42c-156 -14 -234 -42.333 -234 -85z" />
    <glyph glyph-name="c" unicode="c" 
d="M258 915c312.667 -88 469.001 -236.666 469.001 -445.999c-16.667 -312.667 -157.334 -469 -422.001 -469c-154.667 0 -256.334 47 -305.001 141v23l23 47l235 -23h164c94 49.333 141 135.333 141 258v141c-63.333 109.333 -157 164 -281 164h-118
c-35.333 0 -66.666 -8 -93.999 -24c-30 16 -53.333 24 -70 24v70c0 39.333 86 70.666 258 93.999z" />
    <glyph glyph-name="d" unicode="d" 
d="M541 915c82.667 -31.333 124 -100.667 124 -208c-27.333 -457.333 -89.666 -686 -186.999 -686c-46 0 -80.667 -7 -104 -21c-180.667 -0 -305.334 159.333 -374.001 478v21c0 208 145.667 346.667 437 416h104zM146 519.999c0 -222 69.334 -333 208.001 -333
c65.333 0 120.666 166.333 165.999 499c-14 27.333 -21 48.333 -21 63h-145c-138.667 -88 -208 -164.333 -208 -229z" />
    <glyph glyph-name="e" unicode="e" 
d="M0 898h429c156.667 0 235 -78 235 -234v-195c0 -312.667 -104.333 -469 -313 -469h-195c-104 39.333 -156 78.333 -156 117v78l195 39h195l34 150l-247 17l-21 107c152 19.333 243 45.333 273 78v78c-286 20 -429 59 -429 117v117z" />
    <glyph glyph-name="f" unicode="f" 
d="M47 915h515.999c109.333 0 164 -54.667 164 -164v-446c-11.333 -203.333 -42.666 -305 -93.999 -305h-46c-22.667 -0 -46.334 23.333 -71.001 70v47l24 141c0 58 -101.667 105 -305 141v94c0 18.667 93.667 50 281 94c16 30 24 53.333 24 70c-16 30 -24 53.333 -24 70
h-70c-297.333 0 -446 39.333 -446 118v23c4.66699 31.333 20.334 47 47.001 47z" />
    <glyph glyph-name="g" unicode="g" 
 />
    <glyph glyph-name="h" unicode="h" 
 />
    <glyph glyph-name="i" unicode="i" 
d="M217 915h144c376.667 0 593.334 -56.333 650.001 -169c-24 -64 -48 -96 -72 -96h-24l-241 24c-32 -52.667 -48 -100.667 -48 -144v-241c0 -32 80.333 -56 241 -72l24 -48v-49c0 -25.333 -56.333 -65.333 -169 -120c-481.333 0 -722 48 -722 144v73
c0 36.667 40 60.667 120 72c5.33301 -32 21.666 -48 48.999 -48h168c70 0 110 144.333 120 433c-288.667 38 -433 78 -433 120v49c10 48 74.333 72 193 72zM169 578c22.667 -1.33301 62.667 -33.667 120 -97c-1.33301 -22.667 -33.333 -62.667 -96 -120
c-42.667 5.33301 -83 45.333 -121 120c12 48.667 44.333 81 97 97z" />
    <glyph glyph-name="j" unicode="j" 
d="M74 914c49.333 0 213.999 -16.333 493.999 -49c85.333 16 184.333 24 297 24h49c23.333 0 48 -24.667 74 -74v-74c0 -54.667 -123.333 -95.667 -370 -123c-33.333 -60.667 -50 -126.667 -50 -198v-198h25c30.667 0 96.334 24.667 197.001 74
c66 -24.667 99 -49.334 99 -74.001c0 -95.333 -57.667 -169.333 -173 -222h-49c-214 0 -321 123.667 -321 371v247c0 24.667 -33 49.334 -99 74.001l-49 -25c-132 42.667 -198 75.667 -198 99v123c17.333 0 42 8.33301 74 25z" />
    <glyph glyph-name="k" unicode="k" 
d="M469 915c64 0 101.001 -111.667 111.001 -335c0 -15.333 -7.33301 -37.666 -22 -66.999c14.667 -101.333 22 -183 22 -245v-112c0 -14.667 7.66699 -22 23 -22c-30 -60.667 -45 -105.334 -45 -134.001h-67c-37.333 0 -67 81.667 -89 245h-67
c-162 -148.667 -258.667 -223 -290 -223l-45 67v67c193.333 184 290 295.667 290 335c-193.333 140.667 -290 230 -290 268v44h22c55.333 0 159.666 -52 312.999 -156h67c18.667 152.667 41 242 67 268z" />
    <glyph glyph-name="l" unicode="l" 
d="M619 915h27.001c59.333 0 95.333 -143.667 108 -431v-296c0 -100.667 -45 -163.334 -135 -188.001c-122.667 18 -221.334 27 -296.001 27l-269 -27l-54 81v80c0 54 80.667 81 242 81l189 -27c89.333 0 134 170.667 134 512c0 18.667 -9 45.334 -27 80.001
c27.333 72 54.333 108 81 108z" />
    <glyph glyph-name="m" unicode="m" 
 />
    <glyph glyph-name="n" unicode="n" 
 />
    <glyph glyph-name="o" unicode="o" 
 />
    <glyph glyph-name="p" unicode="p" 
d="M361 915c256.667 -83.333 385 -163.667 385 -241c-32 -171.333 -48 -372 -48 -602l-96 -72h-24c-34.667 -0 -74.667 96.333 -120 289c-305.333 0 -458 128.333 -458 385c80 160.667 200.333 241 361 241zM193 625.999v-48c0 -23.333 24 -47.333 72 -72h72
c86.667 0 143 32 169 96v48c0 23.333 -24.333 47.333 -73 72h-144c-25.333 0 -57.333 -32 -96 -96z" />
    <glyph glyph-name="q" unicode="q" 
d="M529 813c212 -102.667 318 -231.333 318 -386h23c-52 -288 -286.667 -432 -704 -432c-124 -60.667 -200 -91 -228 -91c-30 0 -45 15 -45 45v69c106 102 159 162.333 159 181c-10.667 91.333 -25.667 137 -45 137c60 318 219 477 477 477h45zM211 427.001v-46.001
c50.667 0 103.667 22.667 159 68h46c30 -4.66699 45 -19.667 45 -45v-46l-114 -136v-45h114c132 70.667 215.333 146.334 250 227.001v23c0 115.333 -75.667 183.333 -227 204h-137c-90.667 -52.667 -136 -120.667 -136 -204z" />
    <glyph glyph-name="r" unicode="r" 
d="M384 915c237.333 0 356 -118.666 356 -355.999v-406c0 -68 -33.667 -102 -101 -102c-75.333 52.667 -115 124 -119 214l-225 -5c-0.666992 -108.667 -38.667 -195.334 -114 -260.001h-51c-67.333 0 -101 51 -101 153l112 226c-78.667 49.333 -125.667 128.333 -141 237
c49.333 156 177.333 255.667 384 299zM209 598.001l74.001 -117.999l214 11c41.333 22.667 69.666 54.667 84.999 96l-62 136h-164c-68 -40.667 -117 -82.334 -147 -125.001z" />
    <glyph glyph-name="s" unicode="s" 
 />
    <glyph glyph-name="t" unicode="t" 
d="M516 915l71.001 0.000976562c62 0 93 -164.333 93 -493v-140c0 -37.333 101.667 -84.333 305 -141l24 -47v-47c0 -31.333 -23.667 -47 -71 -47c-28 0 -114 15.667 -258 47c-244.667 -16 -424.334 -24 -539.001 -24c-46.667 0 -93.667 31.333 -141 94
c9.33301 62.667 72 94 188 94h258c46.667 0 70 117.333 70 352c0 33.333 -7.66699 119.333 -23 258c15.333 27.333 23 58.666 23 93.999z" />
    <glyph glyph-name="u" unicode="u" 
 />
    <glyph glyph-name="v" unicode="v" 
d="M636 915c179.333 -41.333 306.333 -329.333 381 -864l-51 -26h-51c-32.667 2.66699 -117.334 197.667 -254.001 585h-51c-339.333 -406.667 -525.666 -610 -558.999 -610l-51 76v77c196.667 305.333 408.667 559.333 636 762z" />
    <glyph glyph-name="w" unicode="w" 
 />
    <glyph glyph-name="x" unicode="x" 
 />
    <glyph glyph-name="y" unicode="y" 
d="M0 915h74c144 -164.667 243 -247 297 -247c0 12 66 78 198 198h74c0 -33.333 8.33301 -50 25 -50c-148.667 -221.333 -223 -353.333 -223 -396c99.333 -174.667 149 -281.667 149 -321v-25l-50 -74c-80.667 0 -262 272 -544 816v99z" />
    <glyph glyph-name="z" unicode="z" 
 />
    <glyph glyph-name="braceleft" unicode="{" 
 />
    <glyph glyph-name="bar" unicode="|" 
d="M54 915h54c71.333 -29.333 107 -92 107 -188v-404c0 -215.333 -35.667 -323 -107 -323h-27c-18 0 -45 36 -81 108l27 269v403z" />
    <glyph glyph-name="braceright" unicode="}" 
 />
    <glyph glyph-name="asciitilde" unicode="~" 
d="M136 904h813.002c43.333 0 88.666 -36 135.999 -108l-17 -39c-7.33301 -56 -43 -86 -107 -90l-305 -6c135.333 -290 203 -480.333 203 -571l-91 -45h-45c-24.667 0 -115 120.667 -271 362c-38 -86 -128.333 -221.667 -271 -407h-91c-60 0 -90 30 -90 90v91l339 486
c-134 0 -232 49 -294 147c9.33301 60 39.666 90 90.999 90z" />
    <glyph glyph-name=".null" horiz-adv-x="0" 
 />
    <glyph glyph-name="nonmarkingreturn" 
 />
  </font>
</defs>
</svg>
